PathFileType	4	(X/Y/Z)	C:\Users\avatar\Documents\avatar\mocap1\10002-20130626160334-Unnamed.trc
DataRate	CameraRate	NumFrames	NumMarkers	Units	OrigDataRate	OrigDataStartFrame	OrigNumFrames
400.00	400.00	       99	0	mm	400.00	148	       882
Frame#	Time	
		

148	0.368	460.73425	801.41302	-284.19754	-46.36790	1189.03625	-171.36650	765.84302	1394.90601	-369.94696	6.18831	824.23029	-158.08440	
149	0.370	461.83688	803.52002	-285.14313	-46.10944	1189.51013	-171.34302	765.89777	1395.01575	-370.05197	-12.55825	828.28021	-158.34294	
150	0.373	462.37723	804.54144	-285.58981	-46.27407	1189.83264	-171.48770	765.93707	1395.09497	-370.11914	6.16099	826.88965	-158.61865	
151	0.375	462.89569	805.51874	-286.01138	-46.49939	1190.14111	-171.59677	765.97723	1395.18494	-370.21738				5.32921	828.50775	-159.02594	
152	0.377	463.92029	807.50427	-286.94495	-46.38156	1190.50659	-171.77600	766.03235	1395.30493	-370.34363				5.56149	829.87274	-159.12956	
153	0.380	464.47995	808.55328	-287.27643	-46.45937	1190.75745	-171.82191	766.15479	1395.56946	-370.53482				4.36058	831.07983	-159.04544	
154	0.382	464.94714	809.45441	-287.68152	-47.01820	1191.08704	-171.95105	766.32251	1395.88525	-370.73129				4.99231	832.78217	-159.81850	
155	0.385	466.06946	811.59406	-288.77652	-47.14270	1191.43054	-172.25473	766.33252	1395.91565	-370.76718	-19002.66797	1472.57825	-595.44720	5.15238	834.24414	-159.88686	
156	0.387	466.47208	812.34430	-289.09531	-47.20187	1191.79663	-172.45430	766.38568	1396.02063	-370.87000				5.23105	835.52136	-160.32143	
157	0.390	467.37253	814.02362	-289.58929	-47.26488	1192.06104	-172.58620	766.61871	1396.19141	-371.06641				5.09183	837.08978	-160.47122	
158	0.393	468.28848	815.79022	-290.48166	-47.39991	1192.39380	-172.78008	766.69543	1396.36292	-371.20285				5.88741	838.64874	-161.05461	
159	0.395	468.66263	816.52173	-290.78546	-47.73494	1192.54443	-173.00204	766.78271	1396.54724	-371.35925				5.22393	839.73071	-160.97406	
160	0.398	469.11469	817.39258	-291.32852	-47.75494	1192.71570	-173.07391	766.83905	1396.66821	-371.49652				4.90578	841.10071	-161.32906	
161	0.400	469.92871	818.94263	-291.94781	-47.95646	1192.92212	-173.21738	766.86407	1396.78027	-371.71829				4.95009	842.49371	-161.70894	
162	0.403	470.59689	820.25104	-292.49771	-48.42684	1193.24048	-173.48787	766.92706	1396.91199	-371.83386				4.62272	843.81238	-161.95528	
163	0.405	471.20007	821.43146	-293.10544	-48.81993	1193.58850	-173.63806	767.03766	1397.12732	-371.94852				4.04930	844.85614	-161.89664	
164	0.407	471.71078	822.06897	-293.29639	-49.11222	1193.81873	-173.88501	767.15802	1397.37781	-372.17822				4.05757	846.04547	-162.12007	
165	0.410	472.45840	823.85889	-294.26703	-49.16464	1194.00818	-174.00237				-632.93250	-1410.88989	1089.96985	3.42588	846.85046	-161.87740	
166	0.412	473.02350	824.93469	-294.57251	-49.34211	1194.25024	-174.05737							2.99334	848.25006	-162.21304	
167	0.415	473.73621	825.94513	-294.86401	-49.65189	1194.43127	-174.29808							2.81965	849.21582	-162.06841	
168	0.417	474.55539	827.52997	-295.72809	-50.01286	1194.53735	-174.50600							4.22513	850.74786	-163.03398	
169	0.420	474.73062	827.83728	-296.03091	-50.53365	1194.72205	-174.72035							3.83393	851.64966	-163.12695	
170	0.423	475.16348	828.69495	-296.22061	-51.00024	1194.87085	-175.08806							3.05224	852.80426	-163.27379	
171	0.425	475.83322	829.61218	-296.69846	-51.33770	1195.03308	-175.36420							3.31436	853.84406	-163.34531	
172	0.428	476.05014	830.30725	-296.91446	-51.63217	1195.25647	-175.53197							3.51932	854.97363	-163.61469	
173	0.430	476.96460	832.12262	-297.61658	-51.75080	1195.32312	-175.73972							3.04128	855.73834	-163.61319	
174	0.433	477.18207	832.55664	-297.81406	-52.02689	1195.54932	-175.97754							-14.05740	855.03912	-159.36633	
175	0.435	477.62085	833.34534	-298.30753	-52.44985	1195.66504	-176.31323							-14.45730	856.02393	-159.45558	
176	0.438	478.07040	834.25079	-298.51224	-53.03115	1195.69763	-176.61508							-14.46726	857.01898	-159.40695	
177	0.440	478.98358	835.64252	-299.39658	-53.62432	1195.85474	-177.02565							-14.36346	857.84515	-159.59143	
178	0.442	479.25601	836.14075	-299.59784	-53.99992	1196.08228	-177.26608							-14.48430	858.92999	-159.71417	
179	0.445	479.79019	837.14343	-299.78580	-54.52523	1196.12695	-177.61609							-14.54691	859.87543	-159.72185	
180	0.447	480.23285	838.01190	-300.13455	-54.61822	1196.20337	-177.71004							-14.80041	860.70465	-159.82773	
181	0.450	480.64771	838.78101	-300.43665	-54.98091	1196.44800	-178.03421							-14.67270	861.72595	-159.98503	
182	0.452	481.02951	839.54407	-300.85977	-55.42803	1196.46423	-178.34081							-14.63538	862.71954	-159.90843	
183	0.455	481.55768	840.55835	-301.34775	-56.16456	1196.53345	-178.58464							-15.10777	863.60327	-159.90024	
184	0.458	481.87601	841.41779	-301.65131	-56.82420	1196.66040	-178.85002							-15.17803	864.44904	-159.81404	
185	0.460				-57.20523	1196.76135	-179.16841							-17.84240	864.15778	-163.09938	
186	0.463	-27.84993	865.26801	-173.28447	-57.29874	1196.97595	-179.31197							-17.88753	864.90100	-163.11261	
187	0.465				-57.70635	1197.13599	-179.58626							-16.24092	867.72571	-165.31953	
188	0.468				-58.56136	1197.07214	-179.95003							-16.63690	868.47107	-165.41214	
189	0.470				-59.59550	1197.11084	-180.16142							-16.65520	868.95905	-165.35628	
190	0.472				-59.92973	1197.22815	-180.34436							-16.74844	869.53375	-165.16515	
191	0.475	-12647.62988	1095.01721	928.36816	-60.48444	1197.25989	-180.58954							-16.80792	869.89740	-165.14362	
192	0.477	-12647.29883	1092.18115	927.90607	-60.85870	1197.41077	-180.75652							-17.03564	870.46906	-165.15050	
193	0.480	-12646.28027	1089.94568	926.86194	-61.46398	1197.39844	-180.97688							-17.14010	871.28894	-165.26009	
194	0.482	-12646.24414	1087.26038	926.73322	-62.41947	1197.27319	-181.42174							-17.33023	871.72241	-165.50372	
195	0.485				-62.92638	1197.31653	-181.61771							-17.60059	872.29352	-165.46758	
196	0.488				-63.16595	1197.40442	-181.74274							-17.87074	872.60876	-165.42268	
197	0.490	-640.75165	-1425.35168	1094.70300	-63.60202	1197.46741	-182.01639							-18.16630	873.03448	-165.37538	
198	0.493				-64.64216	1197.44946	-182.32835							-18.51406	873.27911	-165.40102	
199	0.495				-65.37489	1197.42615	-182.51207							-18.92632	873.50873	-165.58232	
200	0.498				-65.84850	1197.34229	-182.68048							-19.03953	873.78156	-165.53810	
201	0.500				-66.49762	1197.23804	-182.94020							-19.20617	874.09637	-165.43463	
202	0.502				-67.04987	1197.29211	-183.13217							-19.35446	874.35303	-165.43031	
203	0.505				-67.69179	1197.21973	-183.24649							-19.62574	874.79938	-165.67050	
204	0.507				-68.32453	1197.10852	-183.42636							-20.18891	874.85339	-165.73318	
205	0.510				-68.84710	1197.08667	-183.58128							-19.72937	875.86584	-165.15398	
206	0.512				-69.57212	1197.07825	-183.84348	
207	0.515				-70.11411	1197.02942	-183.89207	
208	0.517				-70.67565	1197.04248	-184.01280	
209	0.520				-71.39036	1196.97449	-184.08191	
210	0.522				-71.94720	1196.93616	-184.21532	
211	0.525				-72.57053	1196.92114	-184.49861	
212	0.527				-73.17604	1196.87048	-184.66437	
213	0.530	-24.19061	874.24719	-166.68546	-74.15878	1196.71851	-184.91074	-1718.61133	348.94757	611.07397	
214	0.533	-24.62078	873.96515	-166.88168	-74.63834	1196.71423	-184.99522	-1718.18030	348.85196	610.87048	
215	0.535	-25.02436	873.74658	-166.99754	-75.15359	1196.62195	-185.12895	-1717.92529	348.64325	610.58948	
216	0.538	-25.45097	873.50342	-166.99689	-75.67602	1196.57874	-185.25844	-1717.35449	348.28842	609.98718	
217	0.540	-26.12384	873.17261	-167.03552	-77.00053	1196.32642	-185.42340	-1717.64978	347.81381	609.15967	
218	0.543	-26.89739	872.80414	-167.24358	-77.81860	1196.27502	-185.49344	-1716.56702	347.77060	609.18329	
219	0.545	-27.26970	872.62878	-167.34628	-78.48889	1196.22681	-185.55339	-1715.26575	347.51340	608.82159	
220	0.548	-27.81123	872.27747	-167.35080	-79.08071	1196.09692	-185.71863	-1714.58142	347.20560	608.33276	-1439.37048	-1203.89331	560.54315	
221	0.550	-28.60766	871.88599	-167.40469	-80.07751	1196.11865	-185.83492	
222	0.553	-29.30443	871.52704	-167.41818	-80.79058	1196.07605	-185.94307	
223	0.555	-29.99689	871.15594	-167.48393	-81.43669	1195.95911	-186.13971	
224	0.558	-30.95074	870.57782	-167.41939	-82.15908	1195.88062	-186.30083	
225	0.560	-31.66092	870.15826	-167.35269	-83.56488	1195.89258	-186.47166	
226	0.563	-32.37092	869.79169	-167.39551	-84.13760	1195.84912	-186.46346	
227	0.565	-33.03873	869.27277	-167.33914	-84.63367	1195.83569	-186.50375	
228	0.567	-33.82768	868.73645	-167.35239	-85.71127	1195.83057	-186.87318	
229	0.570	-34.75711	868.17261	-167.31026	-86.55306	1195.84448	-187.13843	
230	0.572	-35.55477	867.53973	-167.11470	-87.01001	1195.89526	-187.14870	
231	0.575	-36.42684	866.72015	-167.13443	-87.62269	1196.02185	-187.38217	-641.03040	-1406.25500	1089.53418	
232	0.577	-37.41930	865.97882	-167.18576	-88.68663	1196.03369	-187.49055	
233	0.580	-38.41991	865.22430	-167.05008	-89.52537	1195.94873	-187.84659	44.83902	1278.90918	-44.39290	
234	0.582	-39.47926	864.52887	-166.95227	-90.27618	1195.90247	-187.98123				44.56768	1279.09399	-44.62777	
235	0.585	-40.83614	863.44226	-166.88712	-91.26868	1195.84241	-188.07813				43.06895	1278.90662	-44.75239	
236	0.587	-41.82234	862.65747	-166.76140	-92.08351	1195.87708	-188.14923				41.62474	1279.00635	-44.50354	
237	0.590	-42.58733	861.81213	-166.65195	-92.84844	1195.94751	-188.37477				41.30721	1279.19824	-44.86230	
238	0.592	-43.89014	860.72308	-166.78777	-93.66074	1196.07190	-188.54808	
239	0.595	-45.19945	859.51648	-166.53207	-94.70108	1196.03503	-188.75711	
240	0.598	-46.36716	858.57312	-166.55014	-95.43111	1196.25476	-188.87566	
241	0.600	-47.89663	857.20740	-166.48676	-96.39697	1196.20862	-189.04211	-1441.77612	-1207.33301	562.06696	
242	0.603	-49.17473	856.01715	-166.25905	-97.83466	1195.90613	-189.47694	
243	0.605	-50.47934	854.86749	-166.32668	-98.48808	1195.95972	-189.69411	
244	0.608	-52.20506	853.44672	-166.21506	-99.19981	1195.98242	-189.92957	
245	0.610	-53.45297	852.16199	-166.16978	-100.28227	1196.18896	-190.00359	
246	0.613	-55.15876	850.57129	-166.05945	-100.62353	1196.71924	-189.90746	
